<svg xmlns="http://www.w3.org/2000/svg" viewBox="0 0 12 12" width="12" height="12" shape-rendering="crispEdges"><path fill="#1a1a1f" d="M6 1h1v1h-1zM5 2h1v1h-1zM7 2h1v1h-1zM4 3h1v1h-1zM7 3h1v1h-1zM0 4h4v1h-4zM7 4h1v1h-1zM0 5h1v1h-1zM7 5h1v1h-1zM0 6h1v1h-1zM7 6h1v1h-1zM0 7h4v1h-4zM7 7h1v1h-1zM4 8h1v1h-1zM7 8h1v1h-1zM5 9h1v1h-1zM7 9h1v1h-1zM6 10h1v1h-1z"/><path fill="#8c8c98" d="M6 2h1v1h-1zM5 3h2v1h-2zM4 4h3v1h-3zM1 5h6v1h-6zM1 6h6v1h-6zM4 7h3v1h-3zM5 8h2v1h-2zM6 9h1v1h-1z"/><path fill="#ff3b3b" d="M8 4h1v1h-1zM11 4h1v1h-1zM9 5h2v1h-2zM9 6h2v1h-2zM8 7h1v1h-1zM11 7h1v1h-1z"/></svg>
