<svg xmlns="http://www.w3.org/2000/svg" viewBox="0 0 12 12" width="12" height="12" shape-rendering="crispEdges"><path fill="#1a1a1f" d="M3 1h6v1h-6zM2 2h1v1h-1zM9 2h1v1h-1zM1 3h2v1h-2zM9 3h2v1h-2zM1 4h1v1h-1zM10 4h1v1h-1zM1 5h1v1h-1zM10 5h1v1h-1zM1 6h2v1h-2zM9 6h2v1h-2zM2 7h1v1h-1zM9 7h1v1h-1zM2 8h1v1h-1zM9 8h1v1h-1zM3 9h1v1h-1zM8 9h1v1h-1zM1 10h3v1h-3zM8 10h3v1h-3zM0 11h1v1h-1zM11 11h1v1h-1z"/><path fill="#8c8c98" d="M3 2h6v1h-6zM3 3h6v1h-6zM3 4h1v1h-1zM8 4h1v1h-1zM3 5h2v1h-2zM7 5h2v1h-2zM3 6h2v1h-2zM7 6h2v1h-2zM10 7h1v1h-1zM3 8h1v1h-1zM8 8h1v1h-1zM10 8h1v1h-1z"/><path fill="#4c4c58" d="M2 4h1v1h-1zM9 4h1v1h-1zM2 5h1v1h-1zM5 5h2v1h-2zM9 5h1v1h-1zM9 9h1v1h-1zM4 10h1v1h-1zM7 10h1v1h-1zM1 11h10v1h-10z"/><path fill="#d4d4dc" d="M4 4h4v1h-4zM5 6h2v1h-2zM3 7h6v1h-6zM4 8h4v1h-4zM4 9h4v1h-4zM5 10h2v1h-2z"/></svg>
